<svg width="4" height="12" viewBox="0 0 4 12" fill="none" xmlns="http://www.w3.org/2000/svg">
<path d="M0.291207 9.4775C0.291207 9.2465 0.333207 9.0295 0.417207 8.8265C0.508207 8.6165 0.630707 8.438 0.784707 8.291C0.938707 8.137 1.11721 8.018 1.32021 7.934C1.53021 7.843 1.75771 7.7975 2.00271 7.7975C2.24071 7.7975 2.46471 7.843 2.67471 7.934C2.88471 8.018 3.06671 8.137 3.22071 8.291C3.37471 8.438 3.49371 8.6165 3.57771 8.8265C3.66871 9.0295 3.71421 9.2465 3.71421 9.4775C3.71421 9.7155 3.66871 9.936 3.57771 10.139C3.49371 10.342 3.37471 10.5205 3.22071 10.6745C3.06671 10.8215 2.88471 10.937 2.67471 11.021C2.46471 11.105 2.24071 11.147 2.00271 11.147C1.75771 11.147 1.53021 11.105 1.32021 11.021C1.11721 10.937 0.938707 10.8215 0.784707 10.6745C0.630707 10.5205 0.508207 10.342 0.417207 10.139C0.333207 9.936 0.291207 9.7155 0.291207 9.4775ZM0.291207 2.1275C0.291207 1.8965 0.333207 1.6795 0.417207 1.4765C0.508207 1.2665 0.630707 1.088 0.784707 0.940999C0.938707 0.787 1.11721 0.668 1.32021 0.584C1.53021 0.493 1.75771 0.4475 2.00271 0.4475C2.24071 0.4475 2.46471 0.493 2.67471 0.584C2.88471 0.668 3.06671 0.787 3.22071 0.940999C3.37471 1.088 3.49371 1.2665 3.57771 1.4765C3.66871 1.6795 3.71421 1.8965 3.71421 2.1275C3.71421 2.3655 3.66871 2.586 3.57771 2.789C3.49371 2.992 3.37471 3.1705 3.22071 3.3245C3.06671 3.4715 2.88471 3.587 2.67471 3.671C2.46471 3.755 2.24071 3.797 2.00271 3.797C1.75771 3.797 1.53021 3.755 1.32021 3.671C1.11721 3.587 0.938707 3.4715 0.784707 3.3245C0.630707 3.1705 0.508207 2.992 0.417207 2.789C0.333207 2.586 0.291207 2.3655 0.291207 2.1275Z" fill="white"/>
</svg>
