<svg width="18" height="18" viewBox="0 0 18 18" fill="none" xmlns="http://www.w3.org/2000/svg">
<path d="M9.97425 2.805C9.819 2.6505 9.75 2.45925 9.75 2.27175C9.75 1.87875 10.0553 1.5 10.515 1.5C10.7115 1.5 10.9065 1.575 11.0557 1.7235L13.893 4.56075C13.3147 4.6485 12.768 4.833 12.2745 5.10525L9.97425 2.805ZM9.75 9.375C9.75 8.4075 10.0357 7.50825 10.521 6.75H0V8.25H0.48225C0.8835 8.25 1.248 8.478 1.42425 8.838L4.5 16.5H13.5L14.4083 14.2388C11.817 14.1248 9.75 11.994 9.75 9.375ZM8.02575 2.805C8.181 2.6505 8.25 2.45925 8.25 2.27175C8.25 1.87875 7.94475 1.5 7.485 1.5C7.28925 1.5 7.0935 1.575 6.945 1.7235L3.41925 5.25H5.5815L8.02575 2.805ZM14.625 6C12.7605 6 11.25 7.51125 11.25 9.375C11.25 11.2387 12.7605 12.75 14.625 12.75C16.488 12.75 18 11.2387 18 9.375C18 7.51125 16.488 6 14.625 6ZM14.2733 10.863L13.0072 9.63525L13.5285 9.1125L14.2725 9.8175L15.8588 8.19075L16.3815 8.71275L14.2733 10.863Z" fill="black"/>
</svg>
