<svg width="25" height="25" viewBox="0 0 25 25" fill="none" xmlns="http://www.w3.org/2000/svg">
<g clip-path="url(#clip0_293_1345)">
<path fill-rule="evenodd" clip-rule="evenodd" d="M9.65625 23.5156H9.60938C9.5625 23.5156 9.5625 23.5156 9.5625 23.4688C9.51562 23.4688 9.51562 23.4688 9.51562 23.4688L6.98438 21.4062C6.9375 21.3594 6.9375 21.3125 6.89062 21.3125C6.89062 21.2656 6.89062 21.2188 6.89062 21.1719V11.5625C6.89062 11.1875 7.21875 10.8594 7.59375 10.8594H10.875C11.0625 10.8594 11.1562 11 11.1562 11.1406V13.1094H13.5938V11.1406C13.5938 11 13.6875 10.8594 13.875 10.8594H17.1562C17.5312 10.8594 17.8594 11.1875 17.8594 11.5625V22.8125C17.8594 23.1875 17.5312 23.5156 17.1562 23.5156H9.70312C9.70312 23.5156 9.70312 23.5156 9.65625 23.5156ZM9.98438 22.9531H17.1562C17.25 22.9531 17.2969 22.9062 17.2969 22.8125V11.5625C17.2969 11.4688 17.25 11.4219 17.1562 11.4219H14.1562V13.3906C14.1562 13.5312 14.0156 13.6719 13.875 13.6719H10.875C10.7344 13.6719 10.5938 13.5312 10.5938 13.3906V11.4219H7.59375C7.5 11.4219 7.45312 11.4688 7.45312 11.5625V20.8906H9.70312C9.84375 20.8906 9.98438 21.0312 9.98438 21.1719V22.9531ZM7.96875 21.4531L9.42188 22.625V21.4531H7.96875Z" fill="#666666"/>
<path fill-rule="evenodd" clip-rule="evenodd" d="M15.9375 20.0938H8.8125C8.67188 20.0938 8.53125 19.9531 8.53125 19.8125C8.53125 19.625 8.67188 19.5312 8.8125 19.5312H15.9375C16.0781 19.5312 16.2188 19.625 16.2188 19.8125C16.2188 19.9531 16.0781 20.0938 15.9375 20.0938Z" fill="#666666"/>
<path fill-rule="evenodd" clip-rule="evenodd" d="M15.9375 18.2656H8.8125C8.67188 18.2656 8.53125 18.125 8.53125 17.9844C8.53125 17.8438 8.67188 17.7031 8.8125 17.7031H15.9375C16.0781 17.7031 16.2188 17.8438 16.2188 17.9844C16.2188 18.125 16.0781 18.2656 15.9375 18.2656Z" fill="#666666"/>
<path fill-rule="evenodd" clip-rule="evenodd" d="M15.9375 16.4375H8.8125C8.67188 16.4375 8.53125 16.2969 8.53125 16.1562C8.53125 16.0156 8.67188 15.875 8.8125 15.875H15.9375C16.0781 15.875 16.2188 16.0156 16.2188 16.1562C16.2188 16.2969 16.0781 16.4375 15.9375 16.4375Z" fill="#666666"/>
<path fill-rule="evenodd" clip-rule="evenodd" d="M15.9375 14.6094H8.8125C8.67188 14.6094 8.53125 14.5156 8.53125 14.3281C8.53125 14.1875 8.67188 14.0469 8.8125 14.0469H15.9375C16.0781 14.0469 16.2188 14.1875 16.2188 14.3281C16.2188 14.5156 16.0781 14.6094 15.9375 14.6094Z" fill="#666666"/>
<path fill-rule="evenodd" clip-rule="evenodd" d="M15.9375 22.2969H11.4375C11.2969 22.2969 11.1562 22.1562 11.1562 22.0156V21.0312C11.1562 20.8906 11.2969 20.75 11.4375 20.75H15.9375C16.0781 20.75 16.2188 20.8906 16.2188 21.0312V22.0156C16.2188 22.1562 16.0781 22.2969 15.9375 22.2969ZM11.7188 21.7344H15.6562V21.3125H11.7188V21.7344Z" fill="#666666"/>
<path fill-rule="evenodd" clip-rule="evenodd" d="M13.875 13.6719H10.875C10.7344 13.6719 10.5938 13.5312 10.5938 13.3906V10.1562H9.28128C9.18753 10.1562 9.09378 10.1094 9.0469 10.0156C9.00003 9.92188 9.00003 9.78125 9.09378 9.6875L12.1875 6.59375C12.2344 6.54688 12.2813 6.54688 12.375 6.54688C12.4688 6.54688 12.5157 6.54688 12.5625 6.59375L15.6563 9.6875C15.75 9.78125 15.75 9.92188 15.7032 10.0156C15.6563 10.1094 15.5625 10.1562 15.4688 10.1562H14.1563V13.3906C14.1563 13.5312 14.0157 13.6719 13.875 13.6719ZM11.1563 13.1094H13.5938V9.875C13.5938 9.73438 13.6875 9.59375 13.875 9.59375H14.7657L12.375 7.20312L9.9844 9.59375H10.875C11.0625 9.59375 11.1563 9.73438 11.1563 9.875V13.1094Z" fill="#666666"/>
<path fill-rule="evenodd" clip-rule="evenodd" d="M22.9688 21.4062H17.5781C17.4375 21.4062 17.2969 21.2656 17.2969 21.125V11.5625C17.2969 11.4688 17.25 11.4219 17.1562 11.4219H13.875C13.6875 11.4219 13.5938 11.2812 13.5938 11.1406V9.875C13.5938 9.73438 13.6875 9.59375 13.875 9.59375H14.7656L12.375 7.20312L9.98438 9.59375H10.875C11.0625 9.59375 11.1562 9.73438 11.1562 9.875V11.1406C11.1562 11.2812 11.0625 11.4219 10.875 11.4219H7.59375C7.5 11.4219 7.45312 11.4688 7.45312 11.5625V21.125C7.45312 21.2656 7.3125 21.4062 7.17188 21.4062H1.78125C0.984375 21.4062 0.375 20.7969 0.375 20V2.89062C0.375 2.09375 0.984375 1.48438 1.78125 1.48438H22.9688C23.7656 1.48438 24.375 2.09375 24.375 2.89062V20C24.375 20.7969 23.7656 21.4062 22.9688 21.4062ZM17.8594 20.8438H22.9688C23.4375 20.8438 23.8125 20.4688 23.8125 20V2.89062C23.8125 2.42188 23.4375 2.04688 22.9688 2.04688H1.78125C1.3125 2.04688 0.9375 2.42188 0.9375 2.89062V20C0.9375 20.4688 1.3125 20.8438 1.78125 20.8438H6.89062V11.5625C6.89062 11.1875 7.21875 10.8594 7.59375 10.8594H10.5938V10.1562H9.28125C9.1875 10.1562 9.09375 10.1094 9.04688 10.0156C9 9.92188 9 9.78125 9.09375 9.6875L12.1875 6.59375C12.2344 6.54688 12.2812 6.54688 12.375 6.54688C12.4688 6.54688 12.5156 6.54688 12.5625 6.59375L15.6562 9.6875C15.75 9.78125 15.75 9.92188 15.7031 10.0156C15.6562 10.1094 15.5625 10.1562 15.4688 10.1562H14.1562V10.8594H17.1562C17.5312 10.8594 17.8594 11.1875 17.8594 11.5625V20.8438Z" fill="#666666"/>
<path fill-rule="evenodd" clip-rule="evenodd" d="M24.0938 5.1875H0.65625C0.515625 5.1875 0.375 5.04688 0.375 4.90625C0.375 4.71875 0.515625 4.625 0.65625 4.625H24.0938C24.2344 4.625 24.375 4.71875 24.375 4.90625C24.375 5.04688 24.2344 5.1875 24.0938 5.1875Z" fill="#666666"/>
<path fill-rule="evenodd" clip-rule="evenodd" d="M3.09375 3.59375H2.25C2.10938 3.59375 1.96875 3.5 1.96875 3.3125C1.96875 3.17188 2.10938 3.03125 2.25 3.03125H3.09375C3.23438 3.03125 3.375 3.17188 3.375 3.3125C3.375 3.5 3.23438 3.59375 3.09375 3.59375Z" fill="#666666"/>
<path fill-rule="evenodd" clip-rule="evenodd" d="M4.96875 3.59375H4.125C3.98438 3.59375 3.84375 3.5 3.84375 3.3125C3.84375 3.17188 3.98438 3.03125 4.125 3.03125H4.96875C5.10938 3.03125 5.25 3.17188 5.25 3.3125C5.25 3.5 5.10938 3.59375 4.96875 3.59375Z" fill="#666666"/>
<path fill-rule="evenodd" clip-rule="evenodd" d="M6.84375 3.59375H6C5.85938 3.59375 5.71875 3.5 5.71875 3.3125C5.71875 3.17188 5.85938 3.03125 6 3.03125H6.84375C6.98438 3.03125 7.125 3.17188 7.125 3.3125C7.125 3.5 6.98438 3.59375 6.84375 3.59375Z" fill="#666666"/>
<path fill-rule="evenodd" clip-rule="evenodd" d="M22.5 3.59375H14.9531C14.8125 3.59375 14.6719 3.5 14.6719 3.3125C14.6719 3.17188 14.8125 3.03125 14.9531 3.03125H22.5C22.6406 3.03125 22.7812 3.17188 22.7812 3.3125C22.7812 3.5 22.6406 3.59375 22.5 3.59375Z" fill="#666666"/>
<path fill-rule="evenodd" clip-rule="evenodd" d="M2.29688 18.7812C2.15625 18.7812 2.01562 18.6875 2.01562 18.5V7.48438C2.01562 7.34375 2.15625 7.20312 2.29688 7.20312C2.48438 7.20312 2.57812 7.34375 2.57812 7.48438V18.5C2.57812 18.6875 2.48438 18.7812 2.29688 18.7812Z" fill="#666666"/>
<path fill-rule="evenodd" clip-rule="evenodd" d="M22.4531 18.7812C22.2656 18.7812 22.1719 18.6875 22.1719 18.5V7.48438C22.1719 7.34375 22.2656 7.20312 22.4531 7.20312C22.5938 7.20312 22.7344 7.34375 22.7344 7.48438V18.5C22.7344 18.6875 22.5938 18.7812 22.4531 18.7812Z" fill="#666666"/>
</g>
<defs>
<clipPath id="clip0_293_1345">
<rect width="24" height="24" fill="white" transform="translate(0.375 0.5)"/>
</clipPath>
</defs>
</svg>
